<?xml version="1.0" encoding="utf-8"?>
<!-- Generator: Adobe Illustrator 13.0.0, SVG Export Plug-In . SVG Version: 6.00 Build 14948)  -->
<!-- 
	Reversed copyright symbol (ɔ in a full circle) above the white crossed swords from a classic black pirate flag drawn in SVG.
	derivative work: Meitar + Zscout370 + EugeneZelenko
	This file is licensed under Creative Commons ShareAlike 1.0 License : http://creativecommons.org/licenses/sa/1.0/
	See http://commons.wikimedia.org/wiki/File:Copyleft_Pirate_symbol.svg
-->
<!DOCTYPE svg PUBLIC "-//W3C//DTD SVG 1.0//EN" "http://www.w3.org/TR/2001/REC-SVG-20010904/DTD/svg10.dtd">
<svg version="1.0" id="svg557" xmlns="http://www.w3.org/2000/svg" xmlns:xlink="http://www.w3.org/1999/xlink" x="0px" y="0px"
	 width="744.094px" height="496.062px" viewBox="0 0 744.094 496.062" enable-background="new 0 0 744.094 496.062"
	 xml:space="preserve">
<rect id="rect657" y="1" width="744.094" height="496.062"/>
<g id="g790" transform="translate(11.73454,27.52135)">
	<path id="path719" fill="#FFFFFF" stroke="#000000" d="M590,134c-15,21-31.266,38.794-49,60l-24,27c-20,19-70,56-93,71
		c-13,9-27,16-41,22l-18.26,8.84c3,3,8.58,4.641,13.629,7c3,0,13.631-5.84,16.631-7.84l32-18c6-4,12-9,19-10c-3,7-10,11-17,15
		l-19,11c0,0-19.951,11.37-22.68,13.26c5.469,2.16,13.68,4.641,18.889,6.74c5,0,11.791-5,15.791-7c11-6,25-15,36-23l18-12
		c14-11,28-23,41-36c10-9,20-18,28-29c11-13,18-28,26-43c9-14,12-23,17-38C589,147,592,139,590,134z"/>
	<path id="path725" fill="#FFFFFF" stroke="#000000" d="M131,129c-3,11,1,24,5,34c9,24,24,45,39,65c9,13,24,29,35,40l12,10l26,23
		c21,16,60,40,84,51l32,14l13,5c15,6,30,10,46,13c9,2,19,5,28,5c-3-11-9-10-18-13l-33-13c-46-19-97-38-133-74c7,0,12,6,17,10
		c7,5,16,11,24,16c22,13,72,36,97,45c10,4,27,11,37,11c8,1,19-4,25-8c-4-4-8-3-14-4l-31-9c-27-7-53-17-78-30l-14-6l-19-12l-23-15
		l-24-19l-41-32l-38-39l-19-22l-20-22L131,129z"/>
	<path id="path731" fill="#FFFFFF" stroke="#000000" d="M452,376c2,4,6,10,6,15c0,11-13,21-23,20c-4-1-13-6-16,0c-1,2-1,4,0,5
		c0,4,5,6,9,8c11,3,23-1,32-7c7-4,12-11,14-19l2-13c1-4,5-5,10-12c6-8,12-22,20-28c3-2,6-3,10-4c-2-3-4-5-6-8c-2-1-4-3-6-3
		c-3-1-7-1-10,1c-14,7-11,20-19,30C469,369,462,373,452,376z"/>
	<path id="path737" fill="#FFFFFF" stroke="#000000" d="M484,389c7,3,13,2,20,2l15,1c7,0,9-4,12-10c1-2,2-6,0-8s-6-2-9-2l-17,1
		c-3,0-8,0-11,1C489,377,485,384,484,389z"/>
	<path id="path743" fill="#FFFFFF" stroke="#000000" d="M538,403c-5-2-8-4-11-8c-1,1-2,1-3,2C523,402,536,414,538,403z"/>
	<path id="path744" fill="#FFFFFF" stroke="#000000" d="M531,369l8,5c-2,4-7,12-6,17c1,10,15,10,21,4c7-8,7-20-3-26
		C545,366,538,367,531,369z"/>
	<path id="selection_x5F_to_x5F_path_x23_5" fill="#FFFFFF" stroke="#000000" d="M172,397l1,1c8-2,13-5,14-13
		C181,386,175,392,172,397z"/>
	<path id="selection_x5F_to_x5F_path_x23_4" fill="#FFFFFF" stroke="#000000" d="M179,360c-3-2-6-3-10-3c-3,0-6,0-9,1
		c-10,4-11,20-3,27c4,4,14,6,18,1c4-4,3-9,1-14c-1-3-3-7-1-9C176,361,178,361,179,360z"/>
	<path id="selection_x5F_to_x5F_path_x23_3" fill="#FFFFFF" stroke="#000000" d="M178,364c1,3,6,15,8,17c3,2,6,2,9,2l18-1h13
		c0-3,0-6-1-8c-3-8-14-12-22-12l-9,1C188,363,183,362,178,364z"/>
	<path id="selection_x5F_to_x5F_path_x23_2" fill="#FFFFFF" stroke="#000000" d="M197,332c19,5,19,21,27,32c3,4,11,10,12,14
		c1,3,0,4,1,11c2,9,8,18,16,23c9,6,17,10,28,7c6-2,12-6,9-13s-14,0-21-2c-7-3-15-13-15-21l4-14c-11-4-24-13-29-24c-3-7-3-17-8-22
		C212,316,200,322,197,332z"/>
	<path id="path758" fill="#FFFFFF" stroke="#000000" d="M245,355c3,4,5,5,9,7c14,8,23,2,37-1l29-9c-3.84-2.58-12.42-7.95-16-10
		l-19,5L245,355z"/>
	<path id="path759" fill="#FFFFFF" stroke="#000000" d="M259,384c26,0,50-8,75-14c0,0,11-5.206,14.676-5.206
		c-3.47-2.529-17.622-7.638-19.836-9.634c-3,0.89-14.84,4.84-18.84,5.84l-25,7l-12,3C266,374,261,375,259,384z"/>
</g>
<circle stroke="#FFFFFF" stroke-width="20" cx="376.047" cy="156.031" r="107.775"/>
<path fill="#FFFFFF" d="M375.167,88.672c-31.919,0-58.663,22.231-65.598,52.05h32.187c5.808-12.648,18.59-21.432,33.411-21.432
	c20.282,0,36.742,16.46,36.742,36.741s-16.46,36.742-36.742,36.742c-14.821,0-27.604-8.785-33.411-21.433h-32.187
	c6.935,29.819,33.679,52.05,65.598,52.05c37.183,0,67.359-30.177,67.359-67.359S412.349,88.672,375.167,88.672z"/>
</svg>
